<svg width="111" height="30" viewBox="0 0 111 30" fill="none" xmlns="http://www.w3.org/2000/svg">
<path d="M32.3557 22.3V8.773H34.0957L42.3657 19.666V8.773H44.0197V22.3H42.2797L33.9997 11.3V22.3H32.3457H32.3557ZM57.4927 21.763C56.3651 22.1797 55.1718 22.3907 53.9697 22.386C49.0717 22.386 46.6217 20.044 46.6217 15.339C46.6217 10.892 48.9847 8.657 53.7217 8.657C55.0757 8.657 56.3417 8.85 57.5017 9.217V10.721C56.3417 10.271 55.1387 10.055 53.9137 10.055C50.2187 10.055 48.3707 11.817 48.3707 15.297C48.3707 19.057 50.1967 20.927 53.8277 20.927C54.4077 20.927 55.0527 20.841 55.7617 20.691V16.158H57.5017V21.765L57.4927 21.763ZM60.2857 17.079V8.765H62.0257V17.079C62.0257 19.679 63.3257 20.979 65.9257 20.979C68.5037 20.979 69.8257 19.679 69.8257 17.079V8.765H71.5657V17.079C71.5657 20.624 69.6957 22.407 65.9357 22.407C62.1757 22.407 60.3057 20.624 60.3057 17.079H60.2857ZM76.3997 8.773V20.9H83.4997V22.318H74.6697V8.773H76.4097H76.3997ZM86.0037 22.308H84.1777L90.8997 7L97.6247 22.318H95.6907L93.9507 18.064H89.4807L89.9537 16.646H93.3697L90.8347 10.523L85.9997 22.318L86.0037 22.308ZM99.4957 22.308V8.773H105.276C107.854 8.773 109.143 9.847 109.143 12.017C109.143 13.779 107.875 15.089 105.363 15.917L110.003 22.297H107.703L103.406 16.217V15.1C105.984 14.692 107.306 13.704 107.306 12.114C107.306 10.868 106.606 10.244 105.158 10.244H101.291V22.3H99.5077L99.4957 22.308Z" fill="#B52E31"/>
<path d="M0 5.16412L13.857 0.224121L28.08 5.07912L25.78 23.4051L13.857 30.0001L2.127 23.5001L0 5.16412Z" fill="#E23237"/>
<path d="M28.0804 5.07814L13.8574 0.223145V30.0001L25.7814 23.4041L28.0814 5.07814H28.0804Z" fill="#B52E31"/>
<path d="M13.8802 3.70287L5.24219 22.8999L8.46519 22.8359L10.2052 18.4959H17.9182L19.8182 22.8789L22.8902 22.9429L13.8882 3.69287L13.8802 3.70287ZM13.9002 9.86887L16.8222 15.9709H11.3422L13.9002 9.87087V9.86887Z" fill="white"/>
</svg>
