<svg width="207" height="124" viewBox="0 0 207 124" fill="none" xmlns="http://www.w3.org/2000/svg">
<g clip-path="url(#clip0_675_1634)">
<path d="M48.9424 32.6323H87.9013V35.7139H52.5136V58.9073H85.7911V61.9889H52.5136V87.453H88.3072V90.5346H48.9424V32.6323ZM91.3914 32.6323H95.5308L113.874 58.0964L132.623 32.6323L158.125 0.287109L116.228 60.7725L137.818 90.5346H133.516L113.874 63.4487L94.151 90.5346H89.9305L111.683 60.7725L91.3914 32.6323ZM139.36 35.7139V32.6323H183.757V35.7139H163.303V90.5346H159.732V35.7139H139.36Z" fill="black"/>
<path d="M0.203125 32.6318H4.66717L66.2238 124.303L40.7854 90.5342L3.93669 37.011L3.77436 90.5342H0.203125V32.6318Z" fill="black"/>
<path d="M183.397 86.5231C184.135 86.5231 184.674 85.9605 184.674 85.2335C184.674 84.5064 184.135 83.9438 183.397 83.9438C182.667 83.9438 182.12 84.5064 182.12 85.2335C182.12 85.9605 182.667 86.5231 183.397 86.5231ZM186.906 83.1301C186.906 85.2767 188.461 86.6789 190.728 86.6789C193.143 86.6789 194.602 85.2335 194.602 82.7233V73.886H192.656V82.7147C192.656 84.1082 191.953 84.8526 190.711 84.8526C189.599 84.8526 188.843 84.1602 188.817 83.1301H186.906ZM197.147 83.0176C197.286 85.2508 199.154 86.6789 201.933 86.6789C204.904 86.6789 206.762 85.1815 206.762 82.7926C206.762 80.9143 205.703 79.8756 203.132 79.2784L201.751 78.9408C200.118 78.56 199.458 78.0493 199.458 77.1578C199.458 76.0325 200.482 75.2968 202.02 75.2968C203.479 75.2968 204.487 76.0152 204.669 77.1664H206.563C206.45 75.0631 204.591 73.583 202.046 73.583C199.31 73.583 197.486 75.0631 197.486 77.2876C197.486 79.1226 198.519 80.2132 200.786 80.7412L202.402 81.1307C204.061 81.5202 204.791 82.0915 204.791 83.0436C204.791 84.1515 203.644 84.9565 202.081 84.9565C200.404 84.9565 199.24 84.2034 199.075 83.0176H197.147Z" fill="black"/>
</g>
<defs>
<clipPath id="clip0_675_1634">
<rect width="207" height="124" fill="white"/>
</clipPath>
</defs>
</svg>
