<svg width="131" height="47" viewBox="0 0 131 47" fill="none" xmlns="http://www.w3.org/2000/svg">
<path d="M87.7752 0.000150409C87.6525 0.000231761 87.5319 0.0322572 87.4253 0.093073C87.3195 0.155001 87.2315 0.243433 87.1702 0.349656C87.1089 0.45588 87.0764 0.57623 87.0758 0.69885V18.5199C87.0758 18.6947 86.9945 18.8514 86.8429 18.9392C86.7686 18.9824 86.6842 19.0052 86.5982 19.0052C86.5122 19.0052 86.4277 18.9824 86.3534 18.9392L83.4399 17.2621C83.2274 17.1392 82.9863 17.0744 82.7407 17.0744C82.4952 17.0744 82.254 17.1392 82.0415 17.2621L70.4112 23.9709C69.9765 24.2219 69.7122 24.7039 69.7122 25.2058V38.6239C69.7122 39.1251 69.9768 39.5842 70.4112 39.8351L82.0415 46.5443C82.2539 46.6675 82.4952 46.7324 82.7407 46.7324C82.9863 46.7324 83.2275 46.6675 83.4399 46.5443L95.0703 39.8351C95.2832 39.7126 95.46 39.5361 95.5828 39.3234C95.7056 39.1107 95.77 38.8694 95.7696 38.6239V5.17176C95.7693 4.92045 95.7023 4.67372 95.5754 4.45678C95.4485 4.23983 95.2662 4.06043 95.0472 3.93689L88.1247 0.0697614C88.0162 0.00921602 87.8957 -0.00146845 87.7752 0.000150409V0.000150409ZM12.9588 16.7495C12.7372 16.7583 12.5286 16.7971 12.3297 16.9124L0.699061 23.6216C0.486012 23.7439 0.309128 23.9204 0.186356 24.1331C0.0635843 24.3458 -0.00070685 24.5872 5.86178e-06 24.8328L0.0233293 42.8407C0.0233293 43.091 0.15258 43.3237 0.372857 43.4461C0.478463 43.5096 0.599344 43.5431 0.722547 43.5431C0.845749 43.5431 0.96663 43.5096 1.07224 43.4461L7.97112 39.4861C8.40811 39.2264 8.6935 38.7751 8.6935 38.2745V29.8649C8.6935 29.363 8.9575 28.9026 9.39288 28.6533L12.3294 26.9529C12.5417 26.8295 12.7831 26.7651 13.0287 26.7664C13.2685 26.7664 13.5146 26.8263 13.7278 26.9529L16.6646 28.6533C16.8779 28.7755 17.0549 28.952 17.1778 29.1648C17.3006 29.3776 17.3649 29.6192 17.364 29.8649V38.2742C17.364 38.7748 17.6523 39.2293 18.0864 39.4858L24.9852 43.4461C25.0909 43.5096 25.2117 43.5431 25.3349 43.5431C25.4581 43.5431 25.579 43.5096 25.6846 43.4461C25.7909 43.3846 25.8792 43.2963 25.9406 43.19C26.002 43.0837 26.0344 42.9631 26.0345 42.8404L26.0572 24.8328C26.0585 24.5871 25.9945 24.3454 25.8717 24.1326C25.7488 23.9198 25.5716 23.7434 25.3581 23.6216L13.7278 16.9124C13.5312 16.7971 13.3219 16.7586 13.0987 16.7495H12.9588ZM117.469 16.9124C117.226 16.9124 116.987 16.9739 116.769 17.0989L105.139 23.8081C104.926 23.9305 104.749 24.107 104.627 24.3197C104.504 24.5324 104.439 24.7737 104.44 25.0193V38.4374C104.44 38.9421 104.724 39.3993 105.162 39.6489L116.7 46.2183C117.125 46.4611 117.646 46.4796 118.075 46.2409L125.067 42.3508C125.289 42.2278 125.439 41.9979 125.44 41.7454C125.441 41.6224 125.409 41.5013 125.348 41.3948C125.286 41.2883 125.197 41.2001 125.09 41.1396L113.39 34.4304C113.171 34.3054 113.017 34.0525 113.017 33.8013V29.6084C113.017 29.3575 113.172 29.1276 113.39 29.0027L117.026 26.9059C117.132 26.8444 117.253 26.8121 117.375 26.8121C117.498 26.8121 117.619 26.8444 117.725 26.9059L121.361 29.0027C121.467 29.0638 121.556 29.152 121.617 29.2584C121.678 29.3647 121.711 29.4853 121.71 29.6081V32.9161C121.71 33.0389 121.742 33.1595 121.804 33.2659C121.865 33.3722 121.954 33.4604 122.06 33.5216C122.278 33.6475 122.542 33.6478 122.759 33.5216L129.728 29.4689C129.941 29.346 130.117 29.1693 130.24 28.9567C130.363 28.744 130.428 28.5028 130.428 28.2573V25.0196C130.428 24.5194 130.162 24.0593 129.728 23.8081L118.168 17.0989C117.955 16.976 117.714 16.9118 117.469 16.9127V16.9124ZM82.6939 26.9296C82.7548 26.9296 82.8261 26.9444 82.8805 26.9759L86.8662 29.2821C86.9744 29.3446 87.0528 29.4602 87.0528 29.5848V34.1973C87.0528 34.3226 86.9751 34.4378 86.8662 34.5003L82.8805 36.8065C82.8273 36.8369 82.7671 36.8529 82.7058 36.8529C82.6445 36.8529 82.5842 36.8369 82.531 36.8065L78.5456 34.5003C78.4371 34.4375 78.359 34.3226 78.359 34.1973V29.5848C78.359 29.4598 78.4374 29.3452 78.5456 29.2821L82.531 26.9762C82.58 26.9457 82.6366 26.9297 82.6942 26.9299V26.9296H82.6939Z" fill="#404137"/>
<path d="M47.8959 16.8428C47.6536 16.8428 47.4139 16.9043 47.1969 17.0293L35.5666 23.7152C35.1315 23.9655 34.8672 24.4486 34.8672 24.9498V38.3679C34.8672 38.8698 35.1318 39.3282 35.5666 39.5795L47.1969 46.2884C47.4092 46.4117 47.6505 46.4767 47.8961 46.4767C48.1417 46.4767 48.3829 46.4117 48.5953 46.2884L60.2256 39.5795C60.4385 39.4569 60.6153 39.2803 60.738 39.0676C60.8608 38.8549 60.9252 38.6135 60.9246 38.3679V24.9498C60.9246 24.4479 60.6603 23.9655 60.2256 23.7152L48.5953 17.0293C48.3827 16.9065 48.1414 16.8422 47.8959 16.8428V16.8428ZM117.445 28.8169C117.398 28.8169 117.347 28.8169 117.305 28.8402L115.068 30.1447C115.026 30.1679 114.991 30.2016 114.967 30.2425C114.942 30.2835 114.929 30.3301 114.928 30.3778V32.9402C114.928 33.0367 114.984 33.125 115.068 33.1733L117.305 34.4545C117.389 34.503 117.478 34.503 117.561 34.4545L119.799 33.173C119.84 33.1497 119.875 33.1159 119.9 33.0751C119.924 33.0343 119.938 32.9878 119.939 32.9402V30.3775C119.938 30.3299 119.924 30.2834 119.9 30.2425C119.875 30.2017 119.84 30.168 119.799 30.1447L117.561 28.8399C117.52 28.8156 117.491 28.8172 117.445 28.8172V28.8169Z" fill="#83CD29"/>
</svg>
