<svg width="68" height="61" viewBox="0 0 68 61" fill="none" xmlns="http://www.w3.org/2000/svg">
<path d="M68 30.3751C68 25.8571 62.3587 21.5754 53.7097 18.9202C55.7057 10.0787 54.8186 3.04446 50.9099 0.792394C50.009 0.264131 48.9556 0.0139014 47.8051 0.0139014V3.11397C48.4427 3.11397 48.9556 3.23909 49.3852 3.47541C51.2703 4.55974 52.0881 8.68853 51.4505 13.999C51.298 15.3057 51.0485 16.682 50.7436 18.0861C48.0269 17.4188 45.0607 16.9044 41.9421 16.5708C40.0709 13.999 38.1305 11.6635 36.1761 9.61994C40.6947 5.40774 44.936 3.10007 47.819 3.10007V0C44.0073 0 39.0175 2.72473 33.9723 7.45129C28.927 2.75253 23.9372 0.0556068 20.1256 0.0556068V3.15568C22.9947 3.15568 27.2499 5.44945 31.7684 9.63385C29.828 11.6774 27.8875 13.999 26.044 16.5708C22.9115 16.9044 19.9454 17.4188 17.2287 18.1C16.9099 16.7098 16.6743 15.3613 16.5079 14.0685C15.8565 8.75804 16.6604 4.62925 18.5316 3.53102C18.9474 3.28079 19.488 3.16958 20.1256 3.16958V0.0695083C18.9613 0.0695083 17.9079 0.319738 16.9931 0.848001C13.0982 3.10007 12.225 10.1204 14.2348 18.9341C5.61353 21.6032 0 25.871 0 30.3751C0 34.8932 5.64125 39.1749 14.2903 41.8301C12.2943 50.6715 13.1814 57.7058 17.0901 59.9578C17.991 60.4861 19.0444 60.7363 20.2087 60.7363C24.0204 60.7363 29.0102 58.0116 34.0554 53.285C39.1007 57.9838 44.0905 60.6807 47.9022 60.6807C49.0664 60.6807 50.1199 60.4305 51.0347 59.9022C54.9295 57.6502 55.8027 50.6298 53.7929 41.8162C62.3865 39.161 68 34.8792 68 30.3751V30.3751ZM49.9535 21.1027C49.4407 22.896 48.8031 24.7449 48.0823 26.5939C47.5141 25.4817 46.9181 24.3696 46.2666 23.2575C45.629 22.1453 44.9499 21.061 44.2707 20.0045C46.2389 20.2964 48.1378 20.6579 49.9535 21.1027ZM43.6054 35.908C42.5243 37.7847 41.4154 39.5641 40.265 41.2184C38.1998 41.3991 36.1068 41.4964 34 41.4964C31.9071 41.4964 29.8141 41.3991 27.7627 41.2323C26.6123 39.578 25.4896 37.8125 24.4085 35.9497C23.3551 34.1286 22.3987 32.2796 21.5255 30.4168C22.3848 28.554 23.3551 26.6912 24.3946 24.8701C25.4757 22.9933 26.5846 21.2139 27.735 19.5596C29.8002 19.3789 31.8932 19.2816 34 19.2816C36.0929 19.2816 38.1859 19.3789 40.2373 19.5457C41.3877 21.2 42.5104 22.9655 43.5915 24.8284C44.6449 26.6495 45.6013 28.4984 46.4745 30.3612C45.6013 32.224 44.6449 34.0869 43.6054 35.908ZM48.0823 34.1008C48.8308 35.9636 49.4684 37.8264 49.9951 39.6336C48.1794 40.0785 46.2666 40.4538 44.2845 40.7457C44.9637 39.6753 45.6429 38.5771 46.2805 37.4511C46.9181 36.3389 47.5141 35.2129 48.0823 34.1008ZM34.0277 48.9338C32.7387 47.5993 31.4497 46.1118 30.1745 44.4853C31.4219 44.5409 32.6971 44.5826 33.9861 44.5826C35.289 44.5826 36.5781 44.5548 37.8394 44.4853C36.5919 46.1118 35.3029 47.5993 34.0277 48.9338ZM23.7154 40.7457C21.7472 40.4538 19.8483 40.0924 18.0326 39.6475C18.5455 37.8542 19.183 36.0053 19.9038 34.1564C20.4721 35.2685 21.0681 36.3806 21.7195 37.4928C22.371 38.6049 23.0363 39.6892 23.7154 40.7457ZM33.9584 11.8164C35.2475 13.151 36.5365 14.6384 37.8117 16.2649C36.5642 16.2093 35.289 16.1676 34 16.1676C32.6971 16.1676 31.4081 16.1954 30.1468 16.2649C31.3942 14.6384 32.6832 13.151 33.9584 11.8164ZM23.7016 20.0045C23.0224 21.0749 22.3433 22.1731 21.7057 23.2992C21.0681 24.4113 20.4721 25.5234 19.9038 26.6356C19.1553 24.7727 18.5177 22.9099 17.991 21.1027C19.8068 20.6718 21.7195 20.2964 23.7016 20.0045V20.0045ZM11.1578 37.4094C6.25112 35.3102 3.07705 32.5577 3.07705 30.3751C3.07705 28.1926 6.25112 25.4261 11.1578 23.3409C12.3498 22.8265 13.6527 22.3678 14.9971 21.9368C15.7872 24.6615 16.8267 27.4975 18.1158 30.4029C16.8406 33.2945 15.8149 36.1165 15.0387 38.8273C13.6665 38.3964 12.3636 37.9237 11.1578 37.4094ZM18.6148 57.2748C16.7297 56.1905 15.9119 52.0617 16.5495 46.7513C16.702 45.4445 16.9515 44.0682 17.2564 42.6642C19.9731 43.3315 22.9393 43.8458 26.0579 44.1795C27.9291 46.7513 29.8695 49.0867 31.8239 51.1303C27.3053 55.3425 23.064 57.6502 20.181 57.6502C19.5573 57.6363 19.0306 57.5111 18.6148 57.2748V57.2748ZM51.4921 46.6818C52.1435 51.9922 51.3396 56.121 49.4684 57.2192C49.0526 57.4694 48.512 57.5807 47.8744 57.5807C45.0053 57.5807 40.7501 55.2869 36.2316 51.1025C38.172 49.0589 40.1125 46.7374 41.956 44.1656C45.0885 43.8319 48.0546 43.3176 50.7713 42.6364C51.0901 44.0404 51.3396 45.3889 51.4921 46.6818V46.6818ZM56.8284 37.4094C55.6364 37.9237 54.3335 38.3825 52.989 38.8134C52.1989 36.0887 51.1594 33.2528 49.8704 30.3473C51.1455 27.4558 52.1712 24.6337 52.9474 21.9229C54.3196 22.3539 55.6225 22.8265 56.8422 23.3409C61.7489 25.44 64.9229 28.1926 64.9229 30.3751C64.9091 32.5577 61.735 35.3241 56.8284 37.4094V37.4094Z" fill="#61DAFB"/>
<path d="M33.9856 36.7287C37.484 36.7287 40.3199 33.8843 40.3199 30.3756C40.3199 26.8668 37.484 24.0225 33.9856 24.0225C30.4873 24.0225 27.6514 26.8668 27.6514 30.3756C27.6514 33.8843 30.4873 36.7287 33.9856 36.7287Z" fill="#61DAFB"/>
</svg>
